<svg id="Layer_1" data-name="Layer 1" xmlns="http://www.w3.org/2000/svg" viewBox="0 0 287.69 90.78"><defs><style>.cls-1{fill:#81b741;}.cls-2{fill:#398ecd;}</style></defs><path class="cls-1" d="M89.65,63.48a4.67,4.67,0,0,0-1.18-.17,2.54,2.54,0,0,0-1.41.34,1,1,0,0,0-.54.91,1.16,1.16,0,0,0,.3.83,2,2,0,0,0,.72.5,10.25,10.25,0,0,0,1.18.41,10.9,10.9,0,0,1,1.4.49,2.42,2.42,0,0,1,.91.71,1.84,1.84,0,0,1,.37,1.21A1.87,1.87,0,0,1,91,69.88a2.51,2.51,0,0,1-1.09.79,4.41,4.41,0,0,1-1.61.28,4.62,4.62,0,0,1-1.74-.35,4.74,4.74,0,0,1-1.47-.91L85.5,69a4.25,4.25,0,0,0,1.34.85,3.91,3.91,0,0,0,1.5.31,2.77,2.77,0,0,0,1.56-.39,1.18,1.18,0,0,0,.57-1,1.25,1.25,0,0,0-.29-.85,2,2,0,0,0-.73-.51c-.28-.12-.68-.25-1.2-.41s-1-.34-1.4-.49a2.41,2.41,0,0,1-.89-.69,1.8,1.8,0,0,1-.37-1.19A1.69,1.69,0,0,1,86,63.53a2.27,2.27,0,0,1,1-.73,4.23,4.23,0,0,1,1.53-.26,4.92,4.92,0,0,1,1.41.21,4.83,4.83,0,0,1,1.24.53L90.8,64a4.74,4.74,0,0,0-1.15-.49"/><polygon class="cls-1" points="106.46 62.62 107.35 62.62 104.44 70.89 103.56 70.89 101.14 63.64 98.7 70.89 97.83 70.89 94.94 62.62 95.86 62.62 98.3 70.02 100.73 62.62 101.59 62.62 104.03 70.02 106.46 62.62"/><rect class="cls-1" x="111.47" y="62.63" width="0.85" height="8.26"/><polygon class="cls-1" points="116.5 62.62 123.02 62.62 123.02 63.36 120.18 63.36 120.18 70.89 119.34 70.89 119.34 63.36 116.5 63.36 116.5 62.62"/><path class="cls-1" d="M131.68,63.55a3.75,3.75,0,0,0-1.4-.27,3.65,3.65,0,0,0-1.82.46A3.4,3.4,0,0,0,127.14,65a3.39,3.39,0,0,0,0,3.48,3.6,3.6,0,0,0,1.32,1.25,3.55,3.55,0,0,0,1.82.47,3.88,3.88,0,0,0,1.38-.26,4.28,4.28,0,0,0,1.21-.74l.51.53a4.83,4.83,0,0,1-1.46.9,4.56,4.56,0,0,1-3.91-.24,4.26,4.26,0,0,1-1.61-1.54,3.92,3.92,0,0,1-.6-2.11,3.86,3.86,0,0,1,.6-2.1A4.26,4.26,0,0,1,128,63.12a4.52,4.52,0,0,1,2.24-.56,4.62,4.62,0,0,1,3.1,1.18l-.5.56a3.87,3.87,0,0,0-1.19-.75"/><polygon class="cls-1" points="137.93 62.63 138.78 62.63 138.78 66.41 144.14 66.41 144.14 62.63 144.99 62.63 144.99 70.89 144.14 70.89 144.14 67.14 138.78 67.14 138.78 70.89 137.93 70.89 137.93 62.63"/><polygon class="cls-1" points="155.24 62.62 161.75 62.62 161.75 63.36 158.92 63.36 158.92 70.89 158.07 70.89 158.07 63.36 155.24 63.36 155.24 62.62"/><path class="cls-1" d="M171.27,63.12a4.31,4.31,0,0,1,1.62,1.52,3.87,3.87,0,0,1,.61,2.1,3.93,3.93,0,0,1-.61,2.11,4.36,4.36,0,0,1-1.62,1.54,4.73,4.73,0,0,1-4.5,0,4.31,4.31,0,0,1-1.63-1.54,3.92,3.92,0,0,1-.6-2.11,3.86,3.86,0,0,1,.6-2.1,4.26,4.26,0,0,1,1.63-1.52,4.8,4.8,0,0,1,4.5,0m-4.06.63A3.6,3.6,0,0,0,165.89,65a3.22,3.22,0,0,0-.49,1.74,3.28,3.28,0,0,0,.49,1.75,3.65,3.65,0,0,0,1.32,1.27,3.71,3.71,0,0,0,1.82.47,3.61,3.61,0,0,0,1.8-.47,3.65,3.65,0,0,0,1.32-1.27,3.37,3.37,0,0,0,.49-1.75,3.31,3.31,0,0,0-.49-1.74A3.66,3.66,0,0,0,169,63.29a3.7,3.7,0,0,0-1.82.46"/><polygon class="cls-1" points="182.92 62.62 189.43 62.62 189.43 63.36 186.6 63.36 186.6 70.89 185.75 70.89 185.75 63.36 182.92 63.36 182.92 62.62"/><polygon class="cls-1" points="193.61 62.63 194.46 62.63 194.46 66.41 199.82 66.41 199.82 62.63 200.67 62.63 200.67 70.89 199.82 70.89 199.82 67.14 194.46 67.14 194.46 70.89 193.61 70.89 193.61 62.63"/><polygon class="cls-1" points="206.06 62.63 211.81 62.63 211.81 63.36 206.91 63.36 206.91 66.31 211.29 66.31 211.29 67.05 206.91 67.05 206.91 70.15 211.96 70.15 211.96 70.89 206.06 70.89 206.06 62.63"/><polygon class="cls-1" points="222.81 62.63 228.18 62.63 228.18 63.36 223.66 63.36 223.66 66.54 227.69 66.54 227.69 67.27 223.66 67.27 223.66 70.89 222.81 70.89 222.81 62.63"/><path class="cls-1" d="M233.74,69.52a2.71,2.71,0,0,0,4.7-2V62.62h.84v4.91a3.34,3.34,0,0,1-.94,2.52,4.18,4.18,0,0,1-5.21,0,3.35,3.35,0,0,1-.95-2.52V62.62H233v4.91a2.72,2.72,0,0,0,.71,2"/><polygon class="cls-1" points="243.27 62.62 249.78 62.62 249.78 63.36 246.95 63.36 246.95 70.89 246.1 70.89 246.1 63.36 243.27 63.36 243.27 62.62"/><path class="cls-1" d="M255.34,69.52a2.7,2.7,0,0,0,4.69-2V62.62h.84v4.91a3.37,3.37,0,0,1-.93,2.52,4.2,4.2,0,0,1-5.22,0,3.35,3.35,0,0,1-.95-2.52V62.62h.85v4.91a2.68,2.68,0,0,0,.72,2"/><path class="cls-1" d="M271.73,70.89l-1.85-2.7-.6,0h-2.36v2.67h-.85V62.63h3.21a3.86,3.86,0,0,1,2.48.71,2.46,2.46,0,0,1,.88,2,2.72,2.72,0,0,1-.52,1.71,2.65,2.65,0,0,1-1.47,1l2.06,2.85Zm-2.45-3.41a3,3,0,0,0,1.89-.53,1.9,1.9,0,0,0,.66-1.56,1.81,1.81,0,0,0-.66-1.51,3,3,0,0,0-1.89-.52h-2.36v4.12Z"/><polygon class="cls-1" points="277.64 62.63 283.38 62.63 283.38 63.36 278.49 63.36 278.49 66.31 282.87 66.31 282.87 67.05 278.49 67.05 278.49 70.15 283.54 70.15 283.54 70.89 277.64 70.89 277.64 62.63"/><path class="cls-2" d="M104.83,52.78l-17-17.46L89,36l.09,15.85h-4V26.46h.15l16.68,17.39-.88-.37-.09-16.12h4V52.78Z"/><path class="cls-2" d="M110.92,27.36h15v4.25h-11v5.82h9.77v4.24H114.9v5.92h11.44v4.25H110.92Z"/><path class="cls-2" d="M128.93,51.84l7.85-13.61,1.92,4.41-4.81,9.2Zm.3-24.48h5.09l14.54,24.48h-5.17Zm9.71,9.23,4.81-9.23h4.87l-7.61,13Z"/><path class="cls-2" d="M151.11,27.36h14.94v4.25h-5.57V51.84h-4V31.61h-5.36Z"/><path class="cls-2" d="M180.93,27.36a8.37,8.37,0,0,1,6.18,2.17,8,8,0,0,1,2.16,5.89,11.22,11.22,0,0,1-.4,3,7.7,7.7,0,0,1-1.29,2.69A6.59,6.59,0,0,1,185.21,43a8.06,8.06,0,0,1-3.61.74h-3.19v8.09h-4V27.36Zm.64,12.11a3.76,3.76,0,0,0,1.81-.4,3.24,3.24,0,0,0,1.13-1,4.85,4.85,0,0,0,.77-2.51,5.66,5.66,0,0,0-.13-1.12,4.71,4.71,0,0,0-.52-1.3,3,3,0,0,0-1.1-1.07,3.72,3.72,0,0,0-1.9-.42h-3.22v7.86Z"/><path class="cls-2" d="M192.07,39.6a13.3,13.3,0,0,1,.86-4.76,12.65,12.65,0,0,1,2.44-4A11.76,11.76,0,0,1,199,28.1a9.87,9.87,0,0,1,4.4-1,10.09,10.09,0,0,1,4.41,1,11.69,11.69,0,0,1,3.65,2.73,13.08,13.08,0,0,1,2.48,4,12.88,12.88,0,0,1,.9,4.8,12.95,12.95,0,0,1-3.38,8.85,11.72,11.72,0,0,1-3.65,2.69,10.36,10.36,0,0,1-4.41,1,10.25,10.25,0,0,1-4.4-1,11.57,11.57,0,0,1-3.62-2.68,12.25,12.25,0,0,1-2.44-4A13.75,13.75,0,0,1,192.07,39.6Zm4.14,0a8.85,8.85,0,0,0,1,4.15,7.93,7.93,0,0,0,2.63,3,6.59,6.59,0,0,0,3.7,1.1,6.44,6.44,0,0,0,3.67-1.1,7.87,7.87,0,0,0,2.57-3,9.2,9.2,0,0,0,.94-4.17,9,9,0,0,0-1-4.21,8,8,0,0,0-2.61-3,6.39,6.39,0,0,0-3.66-1.1,6.49,6.49,0,0,0-3.7,1.1,7.92,7.92,0,0,0-2.59,3A9.21,9.21,0,0,0,196.21,39.63Z"/><path class="cls-2" d="M215.68,27.49h4.69l5.11,16.29-.64-.3,4.23-11.67,1.82,6L224.63,53Zm14.88.3,5.93,15.59-.73-.13,4.54-15.76h4.29L236,52.91l-7.26-20.06"/><path class="cls-2" d="M248.63,27.36h15v4.25h-11v5.82h9.77v4.24h-9.77v5.92h11.44v4.25H248.63Z"/><path class="cls-2" d="M275.29,27.36a9.89,9.89,0,0,1,4.55,1,6.82,6.82,0,0,1,2.92,2.78,8.62,8.62,0,0,1,1,4.31,11,11,0,0,1-.41,2.94A8.16,8.16,0,0,1,282.06,41a6.53,6.53,0,0,1-2.4,1.94,8.42,8.42,0,0,1-3.7.73h-3.2v8.13h-4V27.36Zm.64,12.11a3.46,3.46,0,0,0,2.26-.66,3.41,3.41,0,0,0,1.13-1.55,5.11,5.11,0,0,0,.32-1.67,6,6,0,0,0-.14-1.17A4.29,4.29,0,0,0,279,33.1,3,3,0,0,0,277.88,32a3.78,3.78,0,0,0-1.89-.42h-3.23v7.86Zm4,2.71,5.6,9.66h-4.65l-5.72-9.56Z"/><path class="cls-1" d="M43.72,76.07A32.59,32.59,0,1,1,76.31,43.48,32.63,32.63,0,0,1,43.72,76.07Zm0-63.87A31.29,31.29,0,1,0,75,43.48,31.31,31.31,0,0,0,43.72,12.2Z"/><polygon class="cls-2" points="15.21 60.3 17.89 64.24 1.46 88.29 15.21 60.3"/><polygon class="cls-2" points="51.22 69.37 34.72 39.63 19.25 62.26 16.37 57.95 35.34 19.35 51.22 50.98 68.91 25.83 71.4 30 51.22 69.37"/><polygon class="cls-2" points="70.38 23.74 72.76 27.35 86.01 1.51 70.38 23.74"/></svg>