<svg width="17" height="22" viewBox="0 0 17 22" fill="none" xmlns="http://www.w3.org/2000/svg">
<path d="M15.9406 8.39039C15.9406 13.1165 10.9467 18.5438 9.12509 20.3663C8.75918 20.7324 8.1814 20.7324 7.81548 20.3663C5.99391 18.5438 1 13.1165 1 8.39039C1 3.95616 4.61961 1 8.47029 1C12.4544 1 15.9406 3.95616 15.9406 8.39039Z" stroke="white"/>
<path d="M11.8192 8.47089C11.8192 10.3201 10.3201 11.8192 8.47089 11.8192C6.62166 11.8192 5.12256 10.3201 5.12256 8.47089C5.12256 6.62166 6.62166 5.12256 8.47089 5.12256C10.3201 5.12256 11.8192 6.62166 11.8192 8.47089Z" stroke="white"/>
</svg>
