<svg width="23" height="23" viewBox="0 0 23 23" fill="none" xmlns="http://www.w3.org/2000/svg">
<path d="M16.5615 14.1208C16.2038 13.6502 15.7394 13.3671 15.2194 13.3069C14.7036 13.2473 14.1831 13.4123 13.7107 13.7868L12.2328 14.9544C12.1306 14.8831 12.0279 14.816 11.9294 14.7494C11.7871 14.6564 11.6528 14.5686 11.5399 14.4791C10.3899 13.5472 9.38078 12.3895 8.45267 10.9351C8.00514 10.212 7.71741 9.61353 7.52709 9.01786C7.90731 8.74314 8.26382 8.45293 8.61048 8.17433C8.74147 8.0705 8.87294 7.96247 9.00393 7.85864C9.98634 7.07991 10.1183 5.93936 9.33952 4.95695L8.32717 3.67982C8.21222 3.5348 8.09355 3.3851 7.98328 3.23637C7.76175 2.94729 7.52862 2.64838 7.28516 2.36526C6.92497 1.91568 6.4633 1.64557 5.95173 1.58641C5.44016 1.52724 4.92063 1.68387 4.45475 2.03792C4.45008 2.04163 4.45008 2.04163 4.4454 2.04534L2.85337 3.31872C2.25457 3.79337 1.87282 4.41211 1.71795 5.16332C1.47571 6.37609 1.70441 7.55834 1.89484 8.33674C2.36222 10.2477 3.18056 12.0633 4.48383 14.0582C6.06682 16.4637 8.07635 18.451 10.4595 19.9632C11.3711 20.5318 12.5958 21.2216 14.0234 21.4802C14.111 21.4946 14.2028 21.5094 14.2866 21.5191C15.2553 21.6311 16.109 21.3772 16.8264 20.759C16.8315 20.7511 16.8404 20.7479 16.8456 20.74C17.0942 20.5011 17.3734 20.2911 17.6672 20.0659C17.8674 19.9148 18.0727 19.7559 18.2748 19.588C18.7399 19.2041 19.0162 18.7262 19.0758 18.2104C19.1359 17.6905 18.9714 17.1658 18.5964 16.6975L16.5615 14.1208ZM17.552 18.7098C17.5479 18.7093 17.5474 18.7135 17.552 18.7098C17.3681 18.867 17.182 19.007 16.9813 19.1622C16.6787 19.3907 16.3704 19.6312 16.075 19.9073C15.5991 20.3112 15.0754 20.4673 14.4213 20.3916C14.3584 20.3844 14.2913 20.3766 14.2289 20.3651C12.9927 20.1414 11.8917 19.5212 11.0717 19.0057C8.83121 17.5823 6.93584 15.7101 5.44314 13.4426C4.21257 11.5538 3.44081 9.8498 3.0055 8.06575C2.73629 6.97655 2.6878 6.14658 2.83944 5.3865C2.93811 4.90075 3.17385 4.51583 3.56213 4.20805L5.15738 2.94354C5.38515 2.77442 5.61532 2.6948 5.82918 2.71954C6.09335 2.75009 6.28877 2.93416 6.40743 3.08386C6.41114 3.08854 6.41485 3.09322 6.41856 3.0979C6.6467 3.36649 6.86129 3.64202 7.08653 3.93577C7.201 4.08499 7.31966 4.23469 7.43784 4.38858L8.45019 5.66571C8.84326 6.1616 8.79574 6.57253 8.29985 6.9656C8.16419 7.07314 8.03271 7.18116 7.89753 7.28451C7.5036 7.60439 7.12935 7.90105 6.72671 8.18592C6.71736 8.19334 6.70849 8.19656 6.70332 8.20447C6.301 8.52337 6.32736 8.88336 6.37519 9.1311C6.37793 9.14417 6.38067 9.15723 6.38341 9.17029C6.59771 9.92596 6.93847 10.6537 7.48224 11.5367L7.48595 11.5414C8.47838 13.101 9.57009 14.3533 10.8177 15.3602C10.977 15.4891 11.1429 15.5975 11.3009 15.7008C11.4432 15.7937 11.5775 15.8815 11.6904 15.971C11.7062 15.9813 11.7215 15.9958 11.7373 16.0062C11.8716 16.0939 12.0019 16.143 12.1403 16.159C12.4883 16.1993 12.7316 16.0064 12.8111 15.9434L14.411 14.6752C14.5701 14.5491 14.8164 14.4034 15.0806 14.4339C15.3405 14.464 15.5355 14.6523 15.649 14.8099C15.6527 14.8145 15.6527 14.8145 15.6564 14.8192L17.6996 17.3969C18.0821 17.8745 18.0312 18.3148 17.552 18.7098Z" fill="white"/>
<path d="M12.4735 5.96598C13.5508 6.27754 14.4886 6.91291 15.1932 7.80176C15.8977 8.6906 16.2981 9.74823 16.3597 10.8687C16.3738 11.1508 16.5905 11.3713 16.8631 11.4028C16.8966 11.4067 16.9265 11.4059 16.9605 11.4056C17.2766 11.3911 17.516 11.1214 17.5016 10.8053C17.4289 9.44984 16.9401 8.16526 16.0909 7.09397C15.2417 6.02268 14.1026 5.25355 12.7996 4.87338C12.4951 4.78718 12.182 4.95918 12.0921 5.25898C12.0022 5.55878 12.169 5.87977 12.4735 5.96598Z" fill="white"/>
<path d="M21.1149 11.0576C20.9948 8.82559 20.1937 6.71452 18.792 4.94618C17.3902 3.17785 15.5178 1.91597 13.3721 1.28963C13.0723 1.19972 12.7587 1.37591 12.6688 1.67571C12.5826 1.98019 12.7546 2.29328 13.0586 2.38368C14.9743 2.94093 16.6492 4.07373 17.9031 5.65075C19.1565 7.23196 19.8729 9.12076 19.9782 11.1131C19.9923 11.3952 20.209 11.6157 20.4815 11.6472C20.5151 11.6511 20.5449 11.6503 20.579 11.65C20.8904 11.6393 21.134 11.37 21.1149 11.0576Z" fill="white"/>
</svg>
