<svg width="20" height="13" viewBox="0 0 20 13" fill="none" xmlns="http://www.w3.org/2000/svg">
<path d="M18.7778 0H0.481481C0.216667 0 0 0.216667 0 0.481481V12.5185C0 12.7833 0.216667 13 0.481481 13H18.7778C19.0426 13 19.2593 12.7833 19.2593 12.5185V0.481481C19.2593 0.216667 19.0426 0 18.7778 0ZM17.6222 0.962963L9.62963 8.95556L1.63704 0.962963H17.6222ZM0.962963 1.63704L5.82593 6.5L0.962963 11.363V1.63704ZM1.66111 12.037L6.5 7.19815L9.29259 9.99074C9.48518 10.1833 9.77407 10.1833 9.96667 9.99074L12.7593 7.19815L17.5981 12.037H1.66111ZM18.2963 11.363L13.4333 6.5L18.2963 1.63704V11.363Z" fill="white"/>
<path d="M9.5944 8.97535L1.54678 0.927734L0.927734 1.54678C3.40392 4.12615 8.48011 9.40869 8.97535 9.90392C9.47059 10.3992 10.0071 10.1103 10.2134 9.90392L18.2611 1.54678L17.642 0.927734L9.5944 8.97535Z" fill="white"/>
</svg>
