<svg width="130" height="22" viewBox="0 0 130 22" fill="none" xmlns="http://www.w3.org/2000/svg">
<path fill-rule="evenodd" clip-rule="evenodd" d="M15.3093 1.19977C15.7802 1.21281 15.7302 1.54377 15.6523 1.65787C14.2624 3.82007 10.9782 7.62726 8.58693 11.8044C8.19103 12.4812 7.89619 12.9791 7.89619 13.7218C7.89619 14.7288 8.52482 15.9193 9.78767 16.4302C10.6184 16.7631 11.1414 16.7733 12.038 16.7862C18.6945 16.9921 21.363 16.8122 27.3195 16.6101C27.6635 16.6091 27.9833 16.3774 28.0983 16.2373C29.2499 15.0366 29.9138 12.878 29.9138 10.9735C29.9138 6.73156 26.8586 2.91052 22.0927 1.0728L21.3278 2.05377C25.5049 3.78022 27.6635 7.22852 27.6635 10.9216C27.6635 11.7524 27.5225 12.5572 27.2675 13.3259C27.0784 13.8619 26.8457 14.1696 26.1688 14.1799C21.3148 14.2837 18.5665 14.3597 13.6996 14.2318C13.0718 14.2188 12.8688 13.9898 12.7668 13.4928C12.6889 13.1979 12.7538 12.9531 12.9569 12.5832C15.5383 8.0102 20.0352 2.78346 20.918 1.54377C21.0858 1.31476 21.007 0.853024 20.4311 0.700057C18.7464 0.202121 16.8559 0 14.9393 0C6.26148 0.0352253 0.140902 4.91603 0 10.9735C0.34772 18.2448 6.67034 22 14.9393 22C19.9991 22 24.6342 20.2114 27.3463 17.375L24.841 17.4761C22.5276 19.5336 18.8215 20.6332 14.9884 20.6332C8.00186 20.6332 2.31339 17.159 2.31339 10.9216C2.31339 5.55681 8.00089 1.18682 14.9884 1.18682L15.3093 1.19977ZM72.7056 14.3328L77.4316 11.2295L70.2782 5.9008V7.20536H59.6968C58.3162 7.20536 57.1803 8.1873 56.9745 9.46587L69.2416 9.45291V11.7784L59.8627 11.7913C58.3811 11.7913 57.1674 12.917 57.1024 14.3328H72.7056ZM117.642 7.16641H128.49V4.87991H117.581C113.501 4.87991 110.168 7.99717 110.001 11.9063L123.151 11.8925C124.005 11.8925 124.694 12.4553 124.694 13.133C124.694 13.8229 124.004 14.3727 123.151 14.3727L108.673 14.3718V4.87991H104.379V14.3097H95.7562C94.4905 14.1038 94.0937 13.185 94.0937 11.3954L94.0946 4.87991H87.1701L80.9448 8.91603L75.5281 4.87991H58.8661C55.173 4.87991 52.0946 7.42141 51.4168 10.8066H54.764C53.5012 11.6634 52.5294 12.878 51.9925 14.3106L41.3982 14.3097C40.1493 14.1038 39.7395 13.185 39.7395 11.3954L39.7404 4.87991H35.4585V10.9606C35.2786 14.9874 37.4631 16.4302 39.9555 16.6592L73.2416 16.6583L79.3751 12.6972L84.7297 16.7112H91.2814L82.9402 10.4376L89.7997 5.99166L89.8127 10.9606C89.6366 14.9874 92.0362 16.4302 94.5294 16.6592L125.679 16.6583C127.826 16.6583 129.565 15.0885 129.565 13.133C129.565 11.1896 127.825 9.61981 125.679 9.61981H114.921C115.022 8.25217 116.199 7.16641 117.642 7.16641Z" fill="white"/>
</svg>
