<svg width="25" height="25" viewBox="0 0 25 25" fill="none" xmlns="http://www.w3.org/2000/svg">
<rect width="25" height="25" rx="12.5" fill="#292929"/>
<path d="M19.4533 9.06142C19.2901 8.44779 18.8072 7.9637 18.1929 7.79779C17.0821 7.50006 12.6252 7.50006 12.6252 7.50006C12.6252 7.50006 8.1707 7.50006 7.05763 7.79779C6.44556 7.96142 5.9627 8.44552 5.79721 9.06142C5.50024 10.1751 5.50024 12.5001 5.50024 12.5001C5.50024 12.5001 5.50024 14.8251 5.79721 15.9387C5.96043 16.5523 6.44329 17.0364 7.05763 17.2023C8.1707 17.5001 12.6252 17.5001 12.6252 17.5001C12.6252 17.5001 17.0821 17.5001 18.1929 17.2023C18.8049 17.0387 19.2878 16.5546 19.4533 15.9387C19.7502 14.8251 19.7502 12.5001 19.7502 12.5001C19.7502 12.5001 19.7502 10.1751 19.4533 9.06142Z" fill="white"/>
<path d="M11.2016 14.6432L14.9035 12.5001L11.2016 10.3569V14.6432Z" fill="#292929"/>
</svg>
