<svg height="18" viewBox="0 0 20 18" width="20" xmlns="http://www.w3.org/2000/svg"><g fill="none" fill-rule="evenodd" transform="translate(-2 -3)"><path d="m5 4h14c1.1045695 0 2 .8954305 2 2v12c0 1.1045695-.8954305 2-2 2h-14c-1.1045695 0-2-.8954305-2-2v-12c0-1.1045695.8954305-2 2-2z" stroke="#000" stroke-linecap="round" stroke-linejoin="round" stroke-width="2"/><path d="m3 15.7499831 4.71965625-4.7196562c.14065229-.1406524.33141775-.21967.53033016-.21967.1989124 0 .38967786.0790176.53033015.21967l4.18933974 4.1893406c.1406522.1406523.3314177.21967.5303301.21967s.3896779-.0790177.5303302-.21967l1.9393397-1.9393406c.1406522-.1406524.3314177-.21967.5303301-.21967s.3896779.0790176.5303302.21967l3.9696665 3.9696731" stroke="#000" stroke-linecap="round" stroke-linejoin="round" stroke-width="2"/><circle cx="16.5" cy="8.5" fill="#000" r="1.5"/></g></svg>