<svg width="333" height="80" viewBox="0 0 333 80" fill="none" xmlns="http://www.w3.org/2000/svg">
<path fill-rule="evenodd" clip-rule="evenodd" d="M279.29 18.165V19.397H259.701V0H259.744C270.154 0 278.652 8.009 279.29 18.165ZM332.657 42.724V43.956V79.308H313.068H279.29V79.287H279.226C268.837 79.287 260.339 71.278 259.702 61.122V24.538H279.291V59.89H313.069V43.956H304.083V43.935H304.02C293.631 43.935 285.133 35.904 284.496 25.77V24.538H313.07V24.559H313.134C323.521 24.56 332.019 32.59 332.657 42.724Z" fill="#D42E4D"/>
<path fill-rule="evenodd" clip-rule="evenodd" d="M238.817 78.309H204.528H203.444H194.117V36.117C194.479 30.53 198.941 26.047 204.528 25.579V67.984H238.817V78.309ZM11.41 78.309H1V43.191H11.41V78.309ZM63.015 78.288C71.619 78.076 78.524 71.086 78.524 62.503C78.524 58.318 76.888 54.515 74.211 51.689C76.866 49.012 78.524 45.4 78.524 41.322C78.524 32.696 71.555 25.664 62.887 25.515H30.297H19.887V35.819V46.76V57.064V67.983V78.308H63.014L63.015 78.288ZM62.887 57.064C62.908 57.064 63.078 57.085 63.269 57.106C65.988 57.446 68.113 59.74 68.113 62.523C68.113 65.455 65.798 67.834 62.887 67.982H30.297V57.298V57.361V46.739V35.819H62.887V35.84C65.798 35.989 68.113 38.368 68.113 41.3C68.113 44.211 65.819 46.569 62.908 46.739H62.887V46.76H42.662H42.641C36.671 46.697 31.785 51.285 31.253 57.064H62.887ZM86.576 25.515H96.986H132.593C132.104 31.188 127.388 35.649 121.588 35.819H96.985V46.76H132.592C132.125 52.326 127.578 56.724 121.927 57.064H96.985V67.983H132.613V78.308H96.985H86.575V67.984V57.064V46.76V35.819L86.576 25.515ZM185.726 78.309H151.436H150.353H141.026V36.117C141.387 30.53 145.828 26.047 151.436 25.579V67.984H185.726V78.309Z" stroke="#373435" stroke-width="0.686" stroke-miterlimit="2.6131"/>
<path fill-rule="evenodd" clip-rule="evenodd" d="M238.817 78.309H204.528H203.444H194.117V36.117C194.479 30.53 198.941 26.047 204.528 25.579V67.984H238.817V78.309ZM11.41 78.309H1V43.191H11.41V78.309ZM63.015 78.288C71.619 78.076 78.524 71.086 78.524 62.503C78.524 58.318 76.888 54.515 74.211 51.689C76.866 49.012 78.524 45.4 78.524 41.322C78.524 32.696 71.555 25.664 62.887 25.515H30.297H19.887V35.819V46.76V57.064V67.983V78.308H63.014L63.015 78.288ZM62.887 57.064C62.908 57.064 63.078 57.085 63.269 57.106C65.988 57.446 68.113 59.74 68.113 62.523C68.113 65.455 65.798 67.834 62.887 67.982H30.297V57.298V57.361V46.739V35.819H62.887V35.84C65.798 35.989 68.113 38.368 68.113 41.3C68.113 44.211 65.819 46.569 62.908 46.739H62.887V46.76H42.662H42.641C36.671 46.697 31.785 51.285 31.253 57.064H62.887ZM86.576 25.515H96.986H132.593C132.104 31.188 127.388 35.649 121.588 35.819H96.985V46.76H132.592C132.125 52.326 127.578 56.724 121.927 57.064H96.985V67.983H132.613V78.308H96.985H86.575V67.984V57.064V46.76V35.819L86.576 25.515ZM185.726 78.309H151.436H150.353H141.026V36.117C141.387 30.53 145.828 26.047 151.436 25.579V67.984H185.726V78.309Z" fill="#373435"/>
<path fill-rule="evenodd" clip-rule="evenodd" d="M1 35.777H11.389C10.9 30.317 6.503 25.983 1 25.515V35.777Z" stroke="#BF1238" stroke-width="0.7849" stroke-miterlimit="2.6131"/>
<path fill-rule="evenodd" clip-rule="evenodd" d="M1 35.777H11.389C10.9 30.317 6.503 25.983 1 25.515V35.777Z" fill="#D42E4D"/>
<path fill-rule="evenodd" clip-rule="evenodd" d="M217.721 20.799L215.64 17.464C215.384 17.464 215.024 17.464 214.493 17.422V20.8H213.43V13.046C213.473 13.046 213.748 13.025 214.259 13.004C214.768 12.983 215.151 12.962 215.384 12.962C217.254 12.962 218.21 13.706 218.21 15.192C218.21 15.681 218.062 16.127 217.742 16.51C217.445 16.892 217.084 17.147 216.68 17.232L218.953 20.801H217.721V20.799ZM214.492 14V16.528C214.747 16.549 215.002 16.57 215.235 16.57C215.894 16.57 216.361 16.464 216.637 16.251C216.934 16.06 217.083 15.698 217.083 15.168C217.083 14.722 216.934 14.424 216.615 14.233C216.297 14.042 215.808 13.935 215.128 13.935C215.023 13.937 214.81 13.958 214.492 14Z" fill="#373435"/>
<path fill-rule="evenodd" clip-rule="evenodd" d="M215.746 10.389C219.378 10.389 222.31 13.3 222.31 16.89C222.31 20.459 219.377 23.369 215.746 23.369C212.134 23.369 209.201 20.458 209.201 16.89C209.201 13.299 212.134 10.389 215.746 10.389Z" stroke="#373435" stroke-width="0.269" stroke-miterlimit="2.6131"/>
</svg>
